<svg width="512" height="512" viewBox="0 0 512 512" fill="none" xmlns="http://www.w3.org/2000/svg">
<!-- Centered logo in a 512x512 square with white background -->
<rect width="512" height="512" fill="white"/>
<g transform="translate(72.5, 139.5) scale(1)">
<path d="M227.079 0.301834C228.307 0.288999 229.536 0.276164 230.802 0.262939C232.141 0.254768 233.481 0.247325 234.82 0.240555C235.499 0.236479 236.178 0.232404 236.878 0.228205C240.475 0.207374 244.072 0.193062 247.669 0.18367C251.361 0.172643 255.052 0.138278 258.743 0.0984983C261.602 0.0721839 264.461 0.063965 267.32 0.0603886C269.335 0.0532264 271.349 0.0268487 273.364 0C284.266 0.0255641 292.537 2.46136 301.02 9.41243C307.868 16.5577 309.328 25.2321 309.254 34.7303C308.8 41.4256 307.139 47.8092 305.5 54.2913C305.161 55.6771 304.824 57.0631 304.488 58.4495C303.674 61.7966 302.842 65.1388 302 68.4788C302.661 68.4722 303.322 68.4655 304.003 68.4586C310.897 68.3922 317.792 68.347 324.687 68.314C327.258 68.299 329.829 68.2785 332.401 68.2525C336.102 68.216 339.803 68.1991 343.504 68.1859C344.649 68.1704 345.794 68.1549 346.974 68.1389C353.095 68.1377 357.637 68.4177 363 71.4788C366.377 75.3929 366.405 78.9263 366.375 83.9788C366.383 85.2679 366.39 86.557 366.398 87.8851C365.986 91.6034 365.302 93.5595 363 96.4788C362.34 96.4788 361.68 96.4788 361 96.4788C361 97.1388 361 97.7988 361 98.4788C359.899 98.9437 358.797 99.4086 357.663 99.8875C354.449 101.738 353.39 103.169 352.412 106.738C352.046 108.466 351.71 110.201 351.398 111.94C351.002 113.846 350.603 115.752 350.202 117.658C349.908 119.114 349.908 119.114 349.608 120.599C348.673 125.029 347.519 129.394 346.352 133.768C345.902 135.475 345.453 137.183 345.004 138.89C344.545 140.628 344.085 142.366 343.625 144.104C342.657 147.775 341.69 151.447 340.723 155.119C340.487 156.012 340.252 156.905 340.009 157.825C338.61 163.137 337.229 168.453 335.871 173.776C335.56 174.99 335.249 176.205 334.929 177.457C334.377 179.623 333.827 181.79 333.282 183.958C328.297 203.452 328.297 203.452 322.938 211.041C322.266 212.012 321.594 212.983 320.902 213.983C319.357 216.01 317.947 217.84 316 219.479C315.34 219.479 314.68 219.479 314 219.479C314 220.139 314 220.799 314 221.479C301.751 232.065 287.12 232.63 271.748 232.624C270.565 232.627 269.381 232.631 268.162 232.634C264.276 232.644 260.39 232.646 256.504 232.647C255.156 232.648 253.809 232.65 252.461 232.652C245.407 232.661 238.353 232.665 231.299 232.664C224.752 232.664 218.206 232.674 211.66 232.69C206.013 232.703 200.366 232.708 194.719 232.708C191.358 232.707 187.997 232.711 184.636 232.721C180.885 232.731 177.133 232.728 173.381 232.722C172.286 232.727 171.191 232.733 170.063 232.739C157.929 232.69 145.822 231.091 136 223.479C136 222.819 136 222.159 136 221.479C135.412 221.233 134.824 220.986 134.219 220.733C125.265 215.673 121.572 203.761 118.711 194.522C117.972 192.399 117.045 190.467 116 188.479C115.34 188.479 114.68 188.479 114 188.479C114 187.819 114 187.159 114 186.479C113.031 186.169 112.061 185.86 111.062 185.541C108 184.479 108 184.479 107 183.479C104.56 183.087 102.141 182.76 99.6875 182.479C98.94 182.391 98.1925 182.304 97.4224 182.213C90.5827 181.458 83.7406 181.083 76.866 180.821C76.0723 180.789 75.2786 180.757 74.4609 180.725C73.4214 180.689 73.4214 180.689 72.3608 180.652C70.4723 180.514 68.5915 180.27 66.7183 179.993C62.8275 179.455 58.9658 179.196 55.0469 179.014C53.5247 178.935 52.0026 178.857 50.4805 178.778C48.1201 178.659 45.7596 178.542 43.3989 178.429C18.7616 177.24 18.7616 177.24 15 173.479C14.4257 168.31 14.4257 168.31 15 165.479C19.011 162.025 23.5193 161.392 28.668 161.198C29.5619 161.16 30.4559 161.123 31.377 161.084C32.3044 161.05 33.2319 161.015 34.1875 160.979C36.0144 160.909 37.8413 160.836 39.668 160.76C40.4752 160.73 41.2824 160.7 42.114 160.668C44.4658 160.514 46.7704 160.281 49.1091 160.004C54.5905 159.377 60.078 159.085 65.5859 158.795C67.8399 158.671 70.0938 158.547 72.3477 158.422C75.8464 158.232 79.3453 158.043 82.8442 157.857C94.232 157.246 105.62 156.63 116.977 155.569C117.755 155.505 118.534 155.44 119.336 155.374C122.288 155.072 124.528 154.804 127.001 153.098C128.262 151.37 128.262 151.37 128 148.479C127.276 145.356 127.276 145.356 124.781 143.821C121.775 142.37 119.824 142.073 116.508 142.002C115.473 141.971 114.438 141.94 113.371 141.909C112.3 141.89 111.229 141.872 110.125 141.854C103.654 141.697 97.409 141.429 91 140.479C87.3568 140.244 83.7107 140.112 80.0625 139.979C78.1574 139.909 76.2525 139.836 74.3477 139.76C73.5124 139.73 72.6772 139.7 71.8167 139.668C68.8858 139.471 65.995 139.099 63.0828 138.721C59.7582 138.335 56.4235 138.172 53.082 138.014C51.5742 137.937 50.0664 137.86 48.5586 137.782C47.3943 137.724 47.3943 137.724 46.2065 137.664C39.8442 137.338 33.4841 136.969 27.1241 136.601C25.194 136.49 23.2637 136.381 21.3335 136.273C18.3863 136.097 15.4439 135.89 12.5 135.666C11.6722 135.621 10.8444 135.575 9.99146 135.528C6.13503 135.199 4.31006 134.775 1.46875 132.065C0 129.479 0 129.479 0 126.916C1.28583 123.782 2.26538 122.539 5 120.479C8.24118 119.689 11.4894 119.499 14.8125 119.291C15.775 119.217 16.7376 119.143 17.7292 119.067C25.8573 118.472 34.0011 118.097 42.1458 117.82C47.0335 117.649 51.8298 117.302 56.6843 116.717C62.0451 116.165 67.4451 116.074 72.8281 115.873C77.0734 115.701 81.2734 115.485 85.4922 114.971C88.8156 114.57 92.0991 114.37 95.4453 114.268C96.3773 114.24 97.3093 114.211 98.2695 114.182C100.181 114.13 102.092 114.085 104.004 114.049C112.674 113.777 112.674 113.777 120 109.479C120.418 107.106 120.418 107.106 120 104.479C117.704 101.723 115.767 99.7296 112.13 99.2135C111.364 99.1476 110.599 99.0818 109.811 99.014C108.932 98.9373 108.053 98.8606 107.148 98.7816C106.181 98.7023 105.215 98.623 104.219 98.5413C103.204 98.4556 102.188 98.3699 101.142 98.2816C92.9438 97.6045 84.7392 97.0292 76.5312 96.4788C75.3026 96.3964 74.074 96.314 72.8081 96.2291C67.7449 95.8912 62.6816 95.5549 57.6177 95.2288C53.8592 94.9856 50.1015 94.733 46.3438 94.4788C45.2052 94.4079 44.0667 94.337 42.8937 94.264C37.3585 93.8826 32.1889 93.5246 27 91.4788C24.6867 88.0088 24.6604 86.5537 25 82.4788C27 79.4788 27 79.4788 29.2424 78.8033C37.9503 77.5397 46.6743 76.6749 55.4375 75.9163C57.5882 75.7281 59.7387 75.5384 61.8889 75.3456C63.8208 75.1725 65.753 75.0041 67.6853 74.836C70.8674 74.5458 70.8674 74.5458 73.4343 73.981C76.9715 73.2887 80.529 73.0382 84.1172 72.7601C85.2803 72.6659 85.2803 72.6659 86.4668 72.5698C88.936 72.37 91.4055 72.1741 93.875 71.9788C96.3374 71.7833 98.7997 71.5869 101.262 71.3879C102.79 71.2644 104.318 71.143 105.846 71.0239C110.262 70.6679 114.615 70.1214 119 69.4788C122.058 69.1989 125.12 69.058 128.188 68.9163C129.096 68.8739 130.005 68.8314 130.942 68.7877C146.281 68.1704 161.652 68.3964 177 68.4788C177.118 67.6404 177.237 66.8019 177.359 65.9381C178.047 62.2253 179.082 58.7104 180.258 55.1312C180.484 54.438 180.71 53.7449 180.943 53.0307C181.423 51.5667 181.906 50.1036 182.391 48.6412C183.114 46.4508 183.819 44.2552 184.523 42.0589C188.198 30.8228 192.478 19.0004 201 10.4788C201.66 10.4788 202.32 10.4788 203 10.4788C203 9.81884 203 9.15884 203 8.47884C205.248 7.32801 207.498 6.18307 209.75 5.04134C210.701 4.5531 210.701 4.5531 211.672 4.05501C217.123 1.30123 220.996 0.35727 227.079 0.301834ZM216 26.4788C211.324 33.2327 208.834 41.3866 206.371 49.1546C204.321 55.6199 202.145 62.0444 200 68.4788C225.41 68.4788 250.82 68.4788 277 68.4788C284.928 48.4268 284.928 48.4268 284 26.4788C281.734 23.7723 279.898 22.6073 276.387 22.1051C273.003 21.9477 269.642 21.9248 266.254 21.9476C265.01 21.9438 263.766 21.9399 262.485 21.936C259.184 21.9326 255.884 21.9486 252.583 21.971C250.566 21.9788 248.549 21.9711 246.531 21.9574C242.647 21.9326 238.763 21.9356 234.879 21.9476C233.679 21.9395 232.479 21.9314 231.242 21.923C224.903 21.9941 220.758 22.0935 216 26.4788ZM183.541 103.996C179.908 109.906 178.173 115.968 176.5 122.666C176.203 123.81 175.906 124.954 175.6 126.133C173.555 134.073 171.638 142.044 169.782 150.03C168.237 156.643 166.481 163.182 164.611 169.709C161.848 179.372 160.298 187.271 165 196.479C165.66 196.479 166.32 196.479 167 196.479C167 197.139 167 197.799 167 198.479C167.66 198.479 168.32 198.479 169 198.479C169 199.139 169 199.799 169 200.479C175.594 204.409 180.631 205.065 188.23 205.028C189.329 205.038 190.427 205.049 191.559 205.059C195.174 205.087 198.788 205.085 202.402 205.08C204.925 205.088 207.448 205.097 209.971 205.106C215.253 205.121 220.534 205.121 225.815 205.11C231.901 205.098 237.987 205.123 244.073 205.165C249.952 205.205 255.83 205.211 261.709 205.204C264.199 205.205 266.69 205.215 269.181 205.235C272.668 205.26 276.153 205.247 279.64 205.223C281.172 205.246 281.172 205.246 282.734 205.27C290.056 205.163 294.36 203.076 300 198.479C300.763 197.881 301.526 197.283 302.312 196.666C306.839 190.799 308.633 183.683 310.062 176.541C312.938 163.057 316.541 149.765 320.078 136.442C321.4 131.458 322.707 126.47 324 121.479C324.178 120.796 324.357 120.114 324.54 119.41C325.005 117.615 325.452 115.814 325.898 114.014C326.14 113.05 326.382 112.086 326.63 111.092C327.045 108.162 326.978 106.275 326 103.479C322.907 100.544 320.745 100.104 316.541 100.105C315.432 100.098 314.324 100.091 313.181 100.083C311.363 100.095 311.363 100.095 309.508 100.107C308.228 100.103 306.948 100.099 305.629 100.095C302.121 100.086 298.613 100.095 295.104 100.109C291.431 100.12 287.758 100.116 284.085 100.114C277.915 100.113 271.746 100.124 265.576 100.143C258.448 100.164 251.319 100.167 244.19 100.161C237.329 100.155 230.468 100.161 223.607 100.172C220.689 100.177 217.77 100.178 214.852 100.176C210.775 100.173 206.698 100.188 202.621 100.204C201.411 100.202 200.201 100.199 198.955 100.197C197.843 100.204 196.731 100.211 195.586 100.218C194.622 100.22 193.658 100.222 192.666 100.224C189.075 100.567 186.082 101.354 183.541 103.996Z" fill="#5DC023"/>
<path d="M248 116C251.297 118.748 252.873 120.62 253.27 124.93C253.189 130.24 251.319 135.123 249.688 140.125C247.347 147.518 245.24 154.812 243.617 162.395C242.741 166.092 241.433 169.484 240 173C239.67 173.99 239.34 174.98 239 176C235.936 178.523 234.385 179.007 230.375 178.937C227 178 227 178 225.063 176.375C222.6 170.87 224.278 165.123 225.828 159.555C226.114 158.517 226.114 158.517 226.405 157.459C227.011 155.262 227.631 153.068 228.25 150.875C228.651 149.427 229.05 147.979 229.449 146.531C230.422 143.014 231.416 139.504 232.426 135.998C232.984 134.055 233.535 132.109 234.086 130.164C234.425 129.005 234.764 127.846 235.113 126.652C235.408 125.636 235.702 124.621 236.005 123.574C238.013 118.38 242.129 114.609 248 116Z" fill="#5DBF24"/>
<path d="M212 116C214.497 117.498 214.891 118.641 215.734 121.41C216.124 126.675 214.73 131.248 213.375 136.312C213.099 137.376 212.824 138.44 212.54 139.536C210.216 148.415 207.682 157.223 205 166C204.395 168.021 203.791 170.041 203.187 172.062C202.792 173.375 202.397 174.688 202 176C201.34 176 200.68 176 200 176C200 176.66 200 177.32 200 178C197.138 178.631 194.888 179.112 192 179C189 177 189 177 187 174C186.437 167.891 187.918 162.491 189.484 156.648C189.741 155.671 189.998 154.694 190.263 153.688C190.806 151.631 191.355 149.575 191.907 147.52C192.748 144.382 193.566 141.238 194.383 138.094C194.915 136.091 195.449 134.088 195.984 132.086C196.226 131.149 196.468 130.213 196.717 129.248C198.056 124.348 199.306 120.685 203 117C206.05 115.475 208.642 115.764 212 116Z" fill="#57B729"/>
<path d="M286 116C286 116.66 286 117.32 286 118C286.66 118 287.32 118 288 118C290.375 121.563 290.524 123.891 290 128C289.097 131.685 287.931 135.271 286.75 138.875C284.479 146.018 282.398 153.11 280.812 160.437C279.572 166.12 277.989 170.982 275 176C274.34 176 273.68 176 273 176C273 176.66 273 177.32 273 178C264.879 178.613 264.879 178.613 261.937 176.562C259.337 169.456 261.461 162.198 263.625 155.25C264.176 153.412 264.727 151.573 265.277 149.734C265.562 148.795 265.847 147.856 266.14 146.889C267.005 143.982 267.824 141.065 268.629 138.141C269.021 136.723 269.021 136.723 269.421 135.276C269.921 133.466 270.416 131.654 270.907 129.841C273.455 120.735 275.605 115.608 286 116Z" fill="#6BC829"/>
<path d="M243 118C245.312 117.75 245.312 117.75 248 118C250.574 120.308 250.967 121.674 251.312 125.125C251 128 251 128 249 130C249 129.34 249 128.68 249 128C247.68 128.33 246.36 128.66 245 129C243.403 126.464 242.935 125.392 243.438 122.375C243.623 121.591 243.809 120.808 244 120C243.67 119.34 243.34 118.68 243 118Z" fill="#5DC024"/>
<path d="M212 129C213.125 130.562 213.125 130.562 214 133C213.125 136.75 213.125 136.75 212 140C209.376 136.939 209 136.268 209 132C210.5 130.25 210.5 130.25 212 129Z" fill="#62B640"/>
<path d="M207 116C206.67 117.98 206.34 119.96 206 122C205.01 121.67 204.02 121.34 203 121C202.01 121 201.02 121 200 121C204.75 116 204.75 116 207 116Z" fill="#6BB54A"/>
<path d="M232 147C232 148.65 232 150.3 232 152C232.66 152.33 233.32 152.66 234 153C233.01 153.33 232.02 153.66 231 154C231 153.34 231 152.68 231 152C230.34 152 229.68 152 229 152C229 150.68 229 149.36 229 148C231 147 231 147 232 147Z" fill="#6BBF3F"/>
</g>
</svg>
